<svg width="40" height="40" viewBox="0 0 40 40" fill="none" xmlns="http://www.w3.org/2000/svg">
<path d="M20.5 19V19.5H21H27C27.1326 19.5 27.2598 19.5527 27.3536 19.6464C27.4473 19.7402 27.5 19.8674 27.5 20C27.5 20.1326 27.4473 20.2598 27.3536 20.3536C27.2598 20.4473 27.1326 20.5 27 20.5H21H20.5V21V27C20.5 27.1326 20.4473 27.2598 20.3536 27.3536C20.2598 27.4473 20.1326 27.5 20 27.5C19.8674 27.5 19.7402 27.4473 19.6464 27.3536C19.5527 27.2598 19.5 27.1326 19.5 27V21V20.5H19H13C12.8674 20.5 12.7402 20.4473 12.6464 20.3536C12.5527 20.2598 12.5 20.1326 12.5 20C12.5 19.8674 12.5527 19.7402 12.6464 19.6464C12.7402 19.5527 12.8674 19.5 13 19.5H19H19.5V19V13C19.5 12.8674 19.5527 12.7402 19.6464 12.6464C19.7402 12.5527 19.8674 12.5 20 12.5C20.1326 12.5 20.2598 12.5527 20.3536 12.6464C20.4473 12.7402 20.5 12.8674 20.5 13V19Z" fill="black" stroke="#AAAAAA"/>
<rect x="0.5" y="0.5" width="39" height="39" rx="3.5" stroke="#AAAAAA"/>
</svg>
