<svg width="18" height="18" viewBox="0 0 18 18" fill="none" xmlns="http://www.w3.org/2000/svg">
<path fill-rule="evenodd" clip-rule="evenodd" d="M13.7197 15.5304L16.2802 12.9699C16.5735 12.6767 16.5735 12.2019 16.2802 11.9094L15.0907 10.7199C14.7975 10.4267 14.3227 10.4267 14.0302 10.7199L11.4697 13.2804C11.3288 13.4214 11.25 13.6119 11.25 13.8107V15.7502H13.1895C13.3882 15.7502 13.5787 15.6714 13.7197 15.5304V15.5304Z" stroke="#1D1D1D" stroke-linecap="round" stroke-linejoin="round"/>
<path d="M5.25 10.5H8.25" stroke="#1D1D1D" stroke-linecap="round" stroke-linejoin="round"/>
<path d="M5.25 6.75H11.25" stroke="#1D1D1D" stroke-linecap="round" stroke-linejoin="round"/>
<path d="M14.25 7.5V5.25C14.25 4.00725 13.2428 3 12 3H4.5C3.25725 3 2.25 4.00725 2.25 5.25V12C2.25 13.2428 3.25725 14.25 4.5 14.25H8.25" stroke="#1D1D1D" stroke-linecap="round" stroke-linejoin="round"/>
</svg>
