<svg width="18" height="18" viewBox="0 0 18 18" fill="none" xmlns="http://www.w3.org/2000/svg">
<path d="M13.8773 8.99967C13.8773 9.20686 13.7093 9.37482 13.5021 9.37482C13.2949 9.37482 13.127 9.20686 13.127 8.99967C13.127 8.79247 13.2949 8.62451 13.5021 8.62451C13.7093 8.62451 13.8773 8.79247 13.8773 8.99967" stroke="#999999" stroke-width="1.5" stroke-linecap="round" stroke-linejoin="round"/>
<path d="M9.37531 8.99967C9.37531 9.20686 9.20735 9.37482 9.00016 9.37482C8.79296 9.37482 8.625 9.20686 8.625 8.99967C8.625 8.79247 8.79296 8.62451 9.00016 8.62451C9.20735 8.62451 9.37531 8.79247 9.37531 8.99967" stroke="#999999" stroke-width="1.5" stroke-linecap="round" stroke-linejoin="round"/>
<path d="M4.87336 8.99967C4.87336 9.20686 4.7054 9.37482 4.4982 9.37482C4.29101 9.37482 4.12305 9.20686 4.12305 8.99967C4.12305 8.79247 4.29101 8.62451 4.4982 8.62451C4.7054 8.62451 4.87336 8.79247 4.87336 8.99967" stroke="#999999" stroke-width="1.5" stroke-linecap="round" stroke-linejoin="round"/>
</svg>
