<svg width="44" height="41" viewBox="0 0 44 41" fill="none" xmlns="http://www.w3.org/2000/svg">
<g clip-path="url(#clip0_365_4531)">
<path opacity="0.9" d="M36.5723 18.5086L35.0234 38.001L44.0005 18.0244L36.5723 18.5086Z" fill="black"/>
<path opacity="0.8" d="M35.0225 38.0011L17.6849 32.0034L13.1016 40.5001L35.0225 38.0011Z" fill="black"/>
<path opacity="0.2" d="M0 22.8662L15.1092 9.10596L8.75575 2.87402L0 22.8662Z" fill="black"/>
<path opacity="0.4" d="M15.1092 9.10596L17.6853 32.0033L0 22.8662L15.1092 9.10596Z" fill="black"/>
<path opacity="0.8" d="M43.9996 18.0244L30.8027 0.5L36.5714 18.5086L43.9996 18.0244Z" fill="black"/>
<path opacity="0.6" d="M36.572 18.5086L30.8033 0.5L15.1094 9.10602L36.572 18.5086Z" fill="black"/>
<path opacity="0.5" d="M17.6855 32.0033L36.572 18.5085L15.1094 9.10596L17.6855 32.0033Z" fill="black"/>
<path opacity="0.6" d="M13.102 40.4999L17.6853 32.0033L0 22.8662L13.102 40.4999Z" fill="black"/>
<path opacity="0.7" d="M36.572 18.5088L35.0232 38.0012L17.6855 32.0035L36.572 18.5088Z" fill="black"/>
<path opacity="0.3" d="M8.75586 2.87408L15.1093 9.10602L30.8033 0.5L8.75586 2.87408Z" fill="black"/>
</g>
<defs>
<clipPath id="clip0_365_4531">
<rect width="44" height="40" fill="white" transform="translate(0 0.5)"/>
</clipPath>
</defs>
</svg>
