<svg width="24" height="24" viewBox="0 0 24 24" fill="none" xmlns="http://www.w3.org/2000/svg">
<path d="M11.6773 7.32114C11.7748 7.41888 11.7746 7.57712 11.677 7.67469C11.5793 7.77226 11.4211 7.77226 11.3234 7.67469C11.2258 7.57712 11.2256 7.41888 11.3231 7.32114C11.3701 7.2741 11.4338 7.24766 11.5002 7.24766C11.5666 7.24766 11.6304 7.2741 11.6773 7.32114" stroke="#323232" stroke-linecap="round" stroke-linejoin="round"/>
<path d="M21.0041 8.52865C18.8513 8.19783 16.6617 8.82816 15.0143 10.253C13.3669 11.6778 12.4275 13.7537 12.4446 15.9317C12.4474 16.2902 12.4761 16.6479 12.5306 17.0022" stroke="#323232" stroke-linecap="round" stroke-linejoin="round"/>
<path d="M6.99776 6.99805H5.99734C4.3398 6.99805 2.99609 8.34175 2.99609 9.9993V18.0026C2.99609 19.6602 4.3398 21.0039 5.99734 21.0039H14.0007C15.6582 21.0039 17.0019 19.6602 17.0019 18.0026V17.0022" stroke="#323232" stroke-linecap="round" stroke-linejoin="round"/>
<path fill-rule="evenodd" clip-rule="evenodd" d="M18.0026 2.99658H9.9993C8.34175 2.99658 6.99805 4.34029 6.99805 5.99783V14.0012C6.99805 15.6587 8.34175 17.0024 9.9993 17.0024H18.0026C19.6602 17.0024 21.0039 15.6587 21.0039 14.0012V5.99783C21.0039 4.34029 19.6602 2.99658 18.0026 2.99658Z" stroke="#323232" stroke-linecap="round" stroke-linejoin="round"/>
</svg>
