<svg width="24" height="24" viewBox="0 0 24 24" fill="none" xmlns="http://www.w3.org/2000/svg">
<path d="M20.9449 11.0517C20.5276 10.9884 20.1064 10.9547 19.6843 10.9509C17.1399 10.9328 14.7155 12.0318 13.052 13.9573C11.3885 15.8828 10.6533 18.441 11.0407 20.9559" stroke="#323232" stroke-linecap="round" stroke-linejoin="round"/>
<path fill-rule="evenodd" clip-rule="evenodd" d="M21.0036 12.0013V12.0013C21.0036 14.3893 20.0552 16.6795 18.3666 18.3681C16.6781 20.0566 14.3878 21.0051 11.9998 21.0051V21.0051C9.61186 21.0051 7.32163 20.0566 5.63307 18.3681C3.9445 16.6795 2.99609 14.3893 2.99609 12.0013V12.0013C2.99609 9.61332 3.9445 7.32309 5.63307 5.63453C7.32163 3.94597 9.61186 2.99756 11.9998 2.99756V2.99756C14.3878 2.99756 16.6781 3.94597 18.3666 5.63453C20.0552 7.32309 21.0036 9.61332 21.0036 12.0013Z" stroke="#323232" stroke-linecap="round" stroke-linejoin="round"/>
<path d="M10.179 9.29952C10.179 9.43765 10.067 9.54963 9.92892 9.54963C9.79079 9.54963 9.67882 9.43765 9.67882 9.29952C9.67882 9.1614 9.79079 9.04942 9.92892 9.04942" stroke="#323232" stroke-linecap="round" stroke-linejoin="round"/>
<path d="M9.92887 9.04947C10.067 9.04947 10.179 9.16145 10.179 9.29958" stroke="#323232" stroke-linecap="round" stroke-linejoin="round"/>
</svg>
