<svg width="20" height="20" viewBox="0 0 20 20" fill="none" xmlns="http://www.w3.org/2000/svg">
<path d="M9.75747 6.49073C9.83059 6.56404 9.83049 6.68272 9.75725 6.7559C9.68401 6.82908 9.56533 6.82908 9.49209 6.7559C9.41885 6.68272 9.41875 6.56404 9.49186 6.49073C9.52705 6.45545 9.57484 6.43563 9.62467 6.43563C9.6745 6.43563 9.72228 6.45545 9.75747 6.49073" stroke="#323232" stroke-linecap="round" stroke-linejoin="round"/>
<path d="M16.7529 7.39625C15.1382 7.14812 13.496 7.62087 12.2605 8.6895C11.0249 9.75813 10.3204 11.315 10.3332 12.9486C10.3353 13.2174 10.3569 13.4857 10.3977 13.7514" stroke="#323232" stroke-linecap="round" stroke-linejoin="round"/>
<path d="M6.24832 6.24805H5.49801C4.25485 6.24805 3.24707 7.25583 3.24707 8.49898V14.5015C3.24707 15.7446 4.25485 16.7524 5.49801 16.7524H11.5005C12.7437 16.7524 13.7514 15.7446 13.7514 14.5015V13.7512" stroke="#323232" stroke-linecap="round" stroke-linejoin="round"/>
<path fill-rule="evenodd" clip-rule="evenodd" d="M14.5015 3.24707H8.49898C7.25583 3.24707 6.24805 4.25485 6.24805 5.49801V11.5005C6.24805 12.7437 7.25583 13.7514 8.49898 13.7514H14.5015C15.7446 13.7514 16.7524 12.7437 16.7524 11.5005V5.49801C16.7524 4.25485 15.7446 3.24707 14.5015 3.24707Z" stroke="#323232" stroke-linecap="round" stroke-linejoin="round"/>
</svg>
