<svg width="20" height="20" viewBox="0 0 20 20" fill="none" xmlns="http://www.w3.org/2000/svg">
<path d="M16.7086 9.28771C16.3957 9.24021 16.0798 9.21493 15.7633 9.21208C13.8549 9.19854 12.0366 10.0227 10.789 11.4669C9.54141 12.911 8.99001 14.8296 9.28055 16.7158" stroke="#323232" stroke-linecap="round" stroke-linejoin="round"/>
<path fill-rule="evenodd" clip-rule="evenodd" d="M16.7527 9.99988V9.99988C16.7527 11.7909 16.0414 13.5085 14.775 14.775C13.5085 16.0414 11.7909 16.7527 9.99988 16.7527V16.7527C8.20889 16.7527 6.49122 16.0414 5.2248 14.775C3.95838 13.5085 3.24707 11.7909 3.24707 9.99988V9.99988C3.24707 8.20889 3.95838 6.49122 5.2248 5.2248C6.49122 3.95838 8.20889 3.24707 9.99988 3.24707V3.24707C11.7909 3.24707 13.5085 3.95838 14.775 5.2248C16.0414 6.49122 16.7527 8.20889 16.7527 9.99988Z" stroke="#323232" stroke-linecap="round" stroke-linejoin="round"/>
<path d="M8.63402 7.97379C8.63402 8.07739 8.55004 8.16137 8.44645 8.16137C8.34285 8.16137 8.25887 8.07739 8.25887 7.97379C8.25887 7.87019 8.34285 7.78621 8.44645 7.78621" stroke="#323232" stroke-linecap="round" stroke-linejoin="round"/>
<path d="M8.44641 7.78625C8.55 7.78625 8.63398 7.87023 8.63398 7.97383" stroke="#323232" stroke-linecap="round" stroke-linejoin="round"/>
</svg>
