<svg width="19" height="18" viewBox="0 0 19 18" fill="none" xmlns="http://www.w3.org/2000/svg">
<path d="M8 4.5V6H4.25V14.25H12.5V10.5H14V15C14 15.1989 13.921 15.3897 13.7803 15.5303C13.6397 15.671 13.4489 15.75 13.25 15.75H3.5C3.30109 15.75 3.11032 15.671 2.96967 15.5303C2.82902 15.3897 2.75 15.1989 2.75 15V5.25C2.75 5.05109 2.82902 4.86032 2.96967 4.71967C3.11032 4.57902 3.30109 4.5 3.5 4.5H8ZM16.25 2.25V8.25H14.75V4.80975L8.90525 10.6552L7.84475 9.59475L13.6887 3.75H10.25V2.25H16.25Z" fill="#09121F"/>
</svg>
